<?xml version="1.0" encoding="utf-8"?>
<!-- Generator: Adobe Illustrator 21.0.0, SVG Export Plug-In . SVG Version: 6.00 Build 0)  -->
<svg version="1.1" id="Layer_1" xmlns="http://www.w3.org/2000/svg" xmlns:xlink="http://www.w3.org/1999/xlink" x="0px" y="0px"
	 viewBox="0 0 419.5 419.5" style="enable-background:new 0 0 419.5 419.5;" xml:space="preserve">
<style type="text/css">
	.st0{fill:#094173;}
	.st1{fill:#FEF6D5;}
	.st2{fill:#E6DFC9;}
	.st3{fill:#FEFEFE;}
	.st4{fill:#FDF5D4;}
	.st5{fill:#FD6483;}
	.st6{fill:#D9D3BD;}
	.st7{fill:#E5E5E5;}
</style>
<g>
	<path class="st0" d="M118.1,155.5c6.2,6.5,13.8,7.9,22.5,6.1c-2.3,5-4.2,10.1-5.2,15.4c-4.8,25.6,2.1,47.6,20.8,65.8
		c0.3,0.3,0.6,0.6,0.9,0.8c1.1-0.1,0.9-1.1,0.9-1.7c0-4.3,0.2-8.7,0.4-13c0.3-5,1-9.9,3-14.6c5.1-12,19.6-15.7,29.9-7.7
		c0.2,0.1,0.3,0.2,0.5,0.4c0.8,0.7,1.7,1.5,0.8,2.5c-0.9,1-1.7,0-2.4-0.6c-6-5.4-16-4.9-21.2-0.8c-2.6,2.1-4.4,4.7-5.6,7.7
		c-1.7,4.3-2.3,8.9-2.6,13.5c-0.3,5.2-0.3,10.4-0.4,15.6c0,0.7-0.3,1.5,0.5,2c11.9,9,25.3,13.7,40.1,14.5c2.3,0.9,4.6,0.5,6.9,0.4
		c15.2-1.1,28.7-6.4,40.4-16.2c13.2-11.1,21.3-25.1,24.3-42.1c0.1-0.6,0.1-1.2,0.1-1.8c0-0.5,0-0.9,0-1.4c-0.1,1.7,0,3.3-0.4,4.9
		c-0.6,9.4-3,18.4-7.5,26.8c-9.5,17.9-23.9,29.7-43.5,35.2c-5,1.4-10.2,2.1-15.4,2.4c-0.6,0-1.4-0.1-1.7,0.7
		c7.4,15.4,19.1,25.9,35.2,31.5c0.8,0.3,1.2,0.7,1.1,1.5c0,4.7,0,9.5,0,14.2c0,0.9-0.3,1.4-1.2,1.8c-2.9,1.4-4.5,3.9-5.2,7
		c-0.2,1-0.2,1.6,1.2,1.6c5.5-0.1,11.1-0.1,16.6,0c1.3,0,1.4-0.5,1.2-1.5c-0.6-3.1-2.3-5.6-5.1-7c-0.9-0.5-1.2-1-1.2-2
		c0.1-4.1,0-8.1,0-12.2c0-0.9,0-1.5,1.3-1.3c4.7,1,9.6,0.9,14.4,0.6c1.4-0.1,1.7,0.4,1.6,1.6c-0.1,3.7-0.1,7.3,0,11
		c0,1.1-0.2,1.8-1.3,2.3c-2.8,1.4-4.4,3.8-5,6.9c-0.2,1-0.2,1.6,1.2,1.6c5.5-0.1,11.1-0.1,16.6,0c1.3,0,1.4-0.5,1.2-1.5
		c-0.6-3.1-2.2-5.5-5-6.9c-1.1-0.6-1.3-1.2-1.3-2.3c0.1-4.1,0.1-8.1,0-12.2c0-1.2,0.2-1.7,1.5-2c23.9-5.8,41.9-26.6,44.3-51
		c2.8-28.5-14.4-54.3-42-62.6c-1.1-0.3-1.5-0.8-1.5-1.9c-0.7-11.5-4.1-22.2-10.1-32.1c-0.1-0.1,0-0.2,0-0.6
		c4.4,0.4,8.7-0.3,12.7-2.5c2.2-1.2,4.5-2.3,5.7-4.7c1.8-3.2,2.3-6.7,2-10.2c-0.8-10.4-7.9-18.7-18.1-21.2c-6.4-1.5-12.4-0.4-18,3.1
		c-1,0.6-1.7,1.5-2.5,2.3c-1.8,3.8-2.7,7.7-2.4,12.2c-3.3-2-6.2-3.8-9.4-5.3c-1.1-0.5-0.2-1.1,0.1-1.6c2.1-4.1,3.6-8.3,3.3-13
		c-0.3-4.5-2.1-8.2-5.5-11.1c-5.3-4.5-14-2.9-16.9,4.5c-1.5-2-2.8-4-4.4-5.9c-6.2-7.2-13.6-12.4-23-14.2c-4.4-0.9-9,0-10.9,6.1
		c-1.2,4-3.3,5.1-7.5,4.6c-0.7-0.1-1.5-0.1-2.2-0.2c-9.3-1.6-15.2,7.5-13.1,15.7c1.6,6.4,5.6,10.9,10.7,14.8c1.5,1.1,3,2.2,4.6,3.4
		c-3.9,2.4-7.4,4.9-10.9,8c-0.2-3.8-1-7.3-2.6-10.5c-0.6-0.6-1-1.3-1.6-1.8c-9.5-6.7-21.8-5.5-29.9,2.4
		C116.6,136.1,113.8,146.1,118.1,155.5z"/>
	<path class="st1" d="M204.4,270.2c7.2-0.4,14.3-1.3,21.2-3.7c25.4-9.3,40.9-27.2,46.5-53.7c0.5-2.5,0.9-5,0.9-7.5
		c-0.1-1.2,0.7-2.6-0.4-3.7c-5.1,28.2-21.1,47.1-48.2,56.5c-6.8,2.4-13.9,3.2-21,3.2c-0.7,0-1.5,0-2.2,0.1
		C201.7,264.5,203.2,267.3,204.4,270.2z"/>
	<path class="st1" d="M156.6,266.8c-6.5,0-13,0-19.4,0c-2.3,0-3.4,1-2.9,3.2c0.6,2.8,0.3,5.6,0.6,8.3c0.6,5.3,0.5,10.6,0.9,15.9
		c0.6,8.3,1.2,16.6,1.6,24.9c0.1,3.4,0.5,6.7,0.8,10.1c0.1,1.6,0.9,2.5,2.5,2.5c10.7,0,21.4,0,32.1,0c1.3,0,2.2-0.6,2.3-2
		c0.3-3.8,0.6-7.5,0.8-11.3c0.5-7.5,1.1-15.1,1.5-22.6c0.2-4.1,0.6-8.2,0.8-12.3c0.2-4.4,0.6-8.7,0.8-13.1c0.2-3.1-0.4-3.5-3.4-3.5
		c-5.1,0-10.3,0-15.4,0C159,266,157.8,266,156.6,266.8z"/>
	<path class="st1" d="M244.8,121.5c3.9-2.9,8.1-5,13.1-5.5c16.1-1.5,28.6,13.8,23.9,29.3c-0.2,0.7-0.7,1.3-0.5,2.1
		c2.3-1.3,3.5-3.5,4.6-5.8c4.5-9.6,3.1-18.6-3.9-26.4c-3.6-4-8.5-6.2-14.1-6.7c-7.4-0.8-13.6,1.7-18.8,6.8
		C247.3,117.1,245.8,119.2,244.8,121.5z"/>
	<path class="st1" d="M118.1,155.5c0-2.3-1-4.3-1.3-6.6c-1.6-11.8,7.7-23.7,19.5-25.1c6.1-0.7,11.6,0.8,16.7,4.1
		c0.5,0.2,0.7-0.1,0.9-0.4c-2.9-4.6-6.8-8.2-12-10c-7.9-2.8-15.2-1.7-21.8,3.3c-6.1,4.6-9.1,11-9,18.7
		C111.1,145.6,113.5,151.1,118.1,155.5z"/>
	<path class="st1" d="M156.6,266.8c1.2,0,2.4,0,3.6,0c0-6.3,0.6-12.6,0.4-18.9c0-0.4,0-0.8,0.3-1.1c0.2-9.8-0.6-19.8,2.4-29.4
		c3.9-12.4,17.1-16,27-7.6c0.9,0.8,1.9,1.2,2.8,0.2c1.1-1.2,0.4-2.2-0.6-3.1c-8.1-7.9-22.7-6.6-29.3,2.7c-3.9,5.6-5,12-5.4,18.6
		c-0.3,4.5-0.3,8.9-0.5,13.4c0,0.6,0.2,1.3-0.3,1.9c0.2,0.6,0.5,1.1,0.3,1.7c-0.6,1.9-0.3,3.8-0.3,5.7
		C157.2,256.3,156.5,261.5,156.6,266.8z"/>
	<path class="st2" d="M153.8,127.4c-0.3,0.1-0.6,0.3-0.9,0.4c0.4,0.6,1,1,1.6,1.3C154.3,128.6,154,128,153.8,127.4z"/>
	<path class="st3" d="M203.5,180.1c0,4.5,1.3,8.5,3.6,12.3c0.8,1.3,1.3,0.9,2.3,0.3c9.7-6.1,22.1-4.2,29.5,4.5c1,1.2,1.5,0.8,2.3,0
		c6.8-6.3,9.5-14,7.1-23c-2.3-8.8-8.1-14.4-17-16.5C216.9,154.5,203.4,165.4,203.5,180.1z"/>
	<path class="st3" d="M150.2,175.8c0,4.4,1.3,8.5,3.6,12.3c0.5,0.9,1,1.1,2,0.5c10.4-6.3,21.9-4.6,29.9,4.5c0.8,0.9,1.2,0.7,1.9,0.1
		c6.9-5.5,9.8-15.4,7.2-24c-2.7-8.9-10.5-15.3-19.4-16.1C161.6,151.8,150.1,162.1,150.2,175.8z"/>
	<path class="st4" d="M263.3,266.9c-0.9,1.1-1.6,2-2.2,2.9c-1.3,1.8-2.1,3.7-2.1,5.9c0,5,3.5,7.7,8.4,6.5c2.3-0.6,4.3-1.9,6.9-2.7
		c-0.5,1-0.9,1.8-1.2,2.7c-1.3,3.6,1.3,6.7,5.1,6.1c2.1-0.3,3.7-1.4,5-3c1.1-1.4,2.1-2.9,3.2-4.3c1-1.4,2.2-2.7,3.8-3.4
		c0.4-0.2,1-0.3,0.8-0.9c-0.3-0.8-0.9-0.3-1.4-0.1c-1.7,0.7-2.9,2-4,3.5c-1.1,1.5-2.2,3-3.3,4.5c-1.1,1.4-2.5,2.4-4.3,2.6
		c-2.9,0.4-4.7-1.9-3.8-4.7c0.4-1.2,1.2-2.2,2-3.2c0.2-0.3,0.6-0.6,0.4-1c-0.3-0.6-0.8-0.3-1.2-0.3c-1.4,0.2-2.7,0.8-4,1.4
		c-1.4,0.6-2.8,1.3-4.3,1.7c-4.2,1.2-7.3-1.4-7-5.8c0.3-3.1,2.2-5.4,4.2-7.6c0.6-0.6,1.8-1.2,1.4-2c-0.5-1-1.7-0.2-2.5-0.2
		c-0.8,0-1.6,0.1-2.4,0c-4.4-0.6-5.6-3.8-3-7.3c1.2-1.6,2.8-2.9,4.4-4.1c4.5-3.4,9.3-6.5,14.4-8.9c0.4-0.2,0.8-0.4,1.2-0.6
		c0.3-0.2,0.8-0.3,0.6-0.8c-0.3-0.6-0.7-0.4-1.2-0.2c-0.2,0.1-0.5,0.2-0.7,0.3c-6.2,3-12,6.7-17.3,11.1c-1.2,1-2.4,2.2-3.2,3.6
		c-2,3.5-0.4,7.1,3.5,8C260.8,266.7,261.9,266.7,263.3,266.9z"/>
	<path class="st5" d="M198.3,198.4c2.5,0,4.4-2,4.3-4.5c-0.1-2.3-2.1-4.3-4.4-4.3c-2.3,0-4.3,2.1-4.3,4.4
		C193.9,196.4,195.9,198.4,198.3,198.4z"/>
	<path class="st6" d="M272.5,201.6c0.7,1.2,0,2.5,0.4,3.7c0.6-2.1,0.2-4.2,0.2-6.3C272.6,199.8,272.4,200.6,272.5,201.6z"/>
	<path class="st5" d="M156.6,270c-5.5,0-10.9,0-16.4,0c-2.2,0-2.9,0.5-2.7,2.7c0.3,4.8,0.7,9.5,1.1,14.3c0.2,2.3,0.2,4.5,0.4,6.8
		c0.6,7.2,0.8,14.5,1.3,21.7c0.3,3.6,0.6,7.1,0.7,10.7c0.1,2,1.3,2.8,3,2.8c8.5,0.1,17,0.1,25.4,0c2.3,0,2.7-0.9,2.9-3.1
		c0.5-6.9,1.1-13.9,1.5-20.8c0.2-4.4,0.5-8.7,0.8-13.1c0.4-5.6,0.6-11.3,1.2-16.9c0-0.2,0-0.4,0-0.6c0.2-4.2,0.1-4.3-4.1-4.3
		C166.7,270,161.6,270,156.6,270z"/>
	<path class="st0" d="M224.8,184c4.6,0,8.4-3.8,8.4-8.4c0-4.6-3.9-8.4-8.5-8.4c-4.6,0-8.4,3.9-8.4,8.5
		C216.3,180.3,220.1,184,224.8,184z"/>
	<path class="st0" d="M170.2,177.6c4.7,0,8.4-3.7,8.4-8.3c0-4.6-3.7-8.4-8.3-8.5c-4.6,0-8.4,3.8-8.5,8.4
		C161.8,173.8,165.6,177.5,170.2,177.6z"/>
	<path class="st7" d="M158.4,285.3c0.5,0,0.9,0,1.4,0c2.8,0,2.8,0,2.9-2.9c0-3.1,0-3.1-3.2-3.1c-1.1,0-2.1,0.1-3.2,0
		c-1.6-0.1-2.1,0.5-2.1,2.1C154.3,285.9,153.9,285.2,158.4,285.3z"/>
	<path class="st7" d="M150.8,296.9c0.3,0,0.7,0,1,0c3.2,0,3.2,0,3.2-3.1c0-2.9,0-2.9-2.8-2.9c-0.8,0-1.6,0-2.4,0
		c-3.2,0-3.2,0-3.2,3.1C146.6,296.9,146.6,296.9,150.8,296.9z"/>
	<path class="st7" d="M158,306.5c0.5,0,0.9,0,1.4,0c2.8,0,2.8,0,2.8-2.9c0-3.1,0-3.1-3.2-3.1c-1.2,0-2.4,0-3.6,0
		c-1.2,0-1.7,0.5-1.6,1.7C153.8,307.3,153.4,306.4,158,306.5z"/>
</g>
</svg>
